<svg version="1.1" id="Calque_1" xmlns="http://www.w3.org/2000/svg" xmlns:xlink="http://www.w3.org/1999/xlink" x="0px" y="0px" width="453.543px" height="198.425px" viewBox="194.173 198.427 453.543 198.425" enable-background="new 194.173 198.427 453.543 198.425" xml:space="preserve">
<g>
  <g>
    <g>
      <g>
        <circle fill="#FFFFFF" cx="283.326" cy="297.419" r="53.501"></circle>
        <path fill="#ED6435" d="M283.326,352.92c-30.604,0-55.501-24.898-55.501-55.501s24.897-55.501,55.501-55.501
          s55.501,24.897,55.501,55.501S313.929,352.92,283.326,352.92z M283.326,245.918c-28.398,0-51.501,23.103-51.501,51.501
          s23.103,51.501,51.501,51.501s51.501-23.104,51.501-51.501S311.724,245.918,283.326,245.918z"></path>
      </g>
    </g>
    <g>
      <path opacity="0.7" fill="#2EB9D8" enable-background="new    " d="M309.245,301.075L309.245,301.075
        c-4.68,0-20.057-1.47-21.48-20.381c-0.604-8.028,3.888-14.085,8.421-15.709c1.621-0.581,3.572-0.9,5.496-0.9
        c5.276,0,9.523,2.226,11.651,6.107c2.941,5.361,0.868,11.038-0.16,13.23c-1.691,3.798-3.457,7.763,1.906,11.907
        c0.869,0.671,1.3,1.737,1.125,2.781c-0.187,1.109-1,2.008-2.177,2.404C313.014,300.854,311.136,301.075,309.245,301.075z
         M301.682,268.084c-1.475,0-2.948,0.236-4.147,0.666c-2.614,0.937-6.26,5.285-5.782,11.644
        c0.377,5.015,2.837,16.681,17.491,16.681l0,0c0.63,0,1.197-0.027,1.685-0.068c-5.67-5.645-3.027-11.581-1.394-15.247
        c0.785-1.674,2.35-5.891,0.291-9.645C307.832,268.477,303.466,268.084,301.682,268.084z"></path>
      <path fill="#2EB9D8" d="M276.891,332.155c-8.928,0-17.468-3.498-23.432-9.596c-5.046-5.161-7.744-11.635-7.597-18.231
        c0.277-12.383,10.353-22.084,22.938-22.084c10.509,0.018,18.211,9.485,20.323,12.387c3.2,4.222,7.843,9.104,15.209,9.104
        c2.651,0,5.546-0.637,8.606-1.892c1.305-0.536,2.638-0.229,3.392,0.723c0.547,0.691,0.733,1.634,0.509,2.588
        c-0.203,0.865-0.813,1.914-1.159,2.461c-0.64,1.015-1.229,1.852-2.427,3.444C303.025,324.663,290.111,332.155,276.891,332.155z
         M268.836,286.243c-10.427,0-18.747,7.983-18.975,18.174c-0.123,5.511,2.17,10.96,6.458,15.345
        c5.216,5.334,12.714,8.393,20.572,8.393c11.933,0,23.711-6.925,33.166-19.5c0.667-0.887,1.13-1.52,1.517-2.078
        c-2.513,0.769-4.938,1.157-7.241,1.157c-9.231,0-14.934-6.118-18.42-10.72C284.059,294.468,277.418,286.258,268.836,286.243z"></path>
    </g>
  </g>
  <path fill="#EE6536" d="M612.922,319.488H356.807c-0.608,0-1.101-0.493-1.101-1.101c0-0.607,0.493-1.101,1.101-1.101h256.115
    c0.608,0,1.101,0.494,1.101,1.101C614.023,318.995,613.53,319.488,612.922,319.488"></path>
  <g>
    <path fill="#FFFFFF" d="M357.571,248.754H374.1l13.466,21.851l13.465-21.851h16.529v56.441h-15.562v-32.413l-14.433,22.093h-0.323
      l-14.352-22.013v32.333h-15.32v-56.441H357.571z"></path>
    <path fill="#FFFFFF" d="M427.962,248.754h15.642v56.441h-15.642V248.754z"></path>
    <path fill="#FFFFFF" d="M453.924,248.754h15.643v42.734H496.9v13.707h-42.977v-56.441H453.924z"></path>
    <path fill="#FFFFFF" d="M503.672,248.754h15.643v22.899l19.513-22.899h18.464l-21.367,24.189l22.093,32.252h-18.706
      l-14.271-20.964l-5.725,6.289v14.675h-15.643v-56.441H503.672z"></path>
    <path fill="#FFFFFF" d="M576.481,284.07l-21.528-35.316h17.819l11.61,20.561l11.691-20.561h17.497l-21.448,35.074v21.367H576.48
      V284.07H576.481z"></path>
  </g>
  <g>
    <path fill="#21B4C7" d="M357.228,329.592h6.013c1.259,0,2.414,0.204,3.467,0.611c1.052,0.406,1.958,0.971,2.718,1.692
      c0.761,0.723,1.348,1.57,1.763,2.546s0.622,2.031,0.622,3.168v0.046c0,1.137-0.207,2.196-0.622,3.179
      c-0.415,0.983-1.002,1.835-1.763,2.557c-0.76,0.723-1.666,1.29-2.718,1.705c-1.053,0.415-2.208,0.622-3.467,0.622h-6.013V329.592z
       M360.061,332.172v10.966h3.18c0.844,0,1.612-0.134,2.304-0.403c0.69-0.269,1.278-0.645,1.762-1.129
      c0.484-0.483,0.86-1.06,1.129-1.728s0.403-1.394,0.403-2.177v-0.046c0-0.783-0.135-1.513-0.403-2.188s-0.645-1.256-1.129-1.739
      c-0.483-0.484-1.071-0.864-1.762-1.141c-0.691-0.276-1.46-0.415-2.304-0.415H360.061z"></path>
    <path fill="#21B4C7" d="M375.403,329.592h2.833v16.126h-2.833V329.592z"></path>
    <path fill="#21B4C7" d="M390.192,345.994c-1.26,0-2.403-0.211-3.433-0.634c-1.029-0.422-1.908-1.005-2.638-1.75
      s-1.294-1.62-1.693-2.627c-0.399-1.005-0.599-2.1-0.599-3.282v-0.046c0-1.121,0.203-2.188,0.61-3.202s0.979-1.9,1.717-2.661
      c0.736-0.76,1.616-1.362,2.638-1.809c1.021-0.445,2.138-0.668,3.352-0.668c0.706,0,1.348,0.05,1.924,0.149
      c0.575,0.099,1.108,0.239,1.601,0.422c0.491,0.183,0.956,0.407,1.394,0.674c0.438,0.266,0.864,0.574,1.278,0.924l-1.797,2.14
      c-0.307-0.262-0.622-0.499-0.944-0.715c-0.322-0.215-0.66-0.395-1.014-0.541s-0.741-0.261-1.163-0.346
      c-0.423-0.084-0.887-0.127-1.394-0.127c-0.737,0-1.425,0.154-2.062,0.462c-0.638,0.308-1.19,0.72-1.659,1.235
      s-0.837,1.119-1.105,1.812s-0.403,1.424-0.403,2.193v0.046c0,0.831,0.13,1.601,0.392,2.309c0.261,0.708,0.634,1.315,1.117,1.823
      c0.484,0.508,1.06,0.908,1.728,1.2s1.417,0.438,2.246,0.438c0.769,0,1.486-0.111,2.154-0.334s1.247-0.519,1.739-0.887v-3.018
      h-4.124v-2.465h6.865v6.772c-0.399,0.338-0.841,0.66-1.324,0.968c-0.484,0.307-1.006,0.575-1.566,0.806
      c-0.562,0.23-1.164,0.411-1.809,0.542C391.574,345.929,390.898,345.994,390.192,345.994z"></path>
    <path fill="#21B4C7" d="M400.766,329.592h2.834v16.126h-2.834V329.592z"></path>
    <path fill="#21B4C7" d="M411.869,332.219h-5.114v-2.627h13.085v2.627h-5.114v13.499h-2.856L411.869,332.219L411.869,332.219z"></path>
    <path fill="#21B4C7" d="M428.547,329.477h2.627l7.095,16.241h-2.994l-1.636-3.894h-7.625l-1.659,3.894h-2.902L428.547,329.477z
       M432.602,339.313l-2.787-6.45l-2.765,6.45H432.602z"></path>
    <path fill="#21B4C7" d="M441.033,329.592h2.833v13.546h8.478v2.58h-11.311V329.592z"></path>
    <path fill="#21B4C7" d="M461.766,329.592h1.198v16.126h-1.198V329.592z"></path>
    <path fill="#21B4C7" d="M467.916,329.592h1.129l11.127,14.029v-14.029h1.151v16.126h-0.898l-11.356-14.329v14.329h-1.152v-16.126
      H467.916z"></path>
    <path fill="#21B4C7" d="M486.115,329.592h1.128l11.127,14.029v-14.029h1.152v16.126h-0.898l-11.357-14.329v14.329h-1.151v-16.126
      H486.115z"></path>
    <path fill="#21B4C7" d="M511.686,345.994c-1.229,0-2.339-0.227-3.329-0.68c-0.99-0.452-1.839-1.06-2.546-1.819
      c-0.706-0.761-1.252-1.64-1.635-2.638c-0.385-0.998-0.576-2.051-0.576-3.156v-0.046c0-1.106,0.195-2.162,0.587-3.168
      s0.94-1.893,1.647-2.66c0.706-0.769,1.559-1.379,2.557-1.832c0.998-0.452,2.111-0.68,3.341-0.68c1.213,0,2.318,0.228,3.317,0.68
      c0.998,0.453,1.851,1.06,2.557,1.82s1.252,1.64,1.636,2.638s0.576,2.05,0.576,3.156v0.046c0,1.105-0.196,2.161-0.588,3.167
      s-0.94,1.894-1.646,2.661c-0.707,0.768-1.563,1.379-2.569,1.831C514.008,345.768,512.898,345.994,511.686,345.994z
       M511.731,344.911c0.998,0,1.915-0.188,2.753-0.564c0.837-0.376,1.559-0.89,2.165-1.543c0.606-0.652,1.079-1.417,1.417-2.292
      c0.338-0.876,0.507-1.812,0.507-2.811v-0.046c0-0.998-0.173-1.938-0.519-2.822c-0.346-0.883-0.821-1.65-1.428-2.304
      c-0.607-0.652-1.333-1.171-2.178-1.555s-1.766-0.576-2.764-0.576c-0.999,0-1.916,0.188-2.753,0.564
      c-0.838,0.377-1.56,0.891-2.166,1.543c-0.606,0.653-1.079,1.417-1.416,2.293c-0.339,0.875-0.507,1.812-0.507,2.811v0.046
      c0,0.998,0.173,1.938,0.518,2.821c0.346,0.884,0.821,1.651,1.429,2.304c0.606,0.653,1.332,1.172,2.177,1.556
      S510.732,344.911,511.731,344.911z"></path>
    <path fill="#21B4C7" d="M521.591,329.592h1.336l6.312,14.836l6.335-14.836h1.267l-7.095,16.241h-1.06L521.591,329.592z"></path>
    <path fill="#21B4C7" d="M546.378,329.477h1.152l7.51,16.241h-1.313l-2.05-4.516h-9.515l-2.05,4.516h-1.244L546.378,329.477z
       M551.17,340.12l-4.239-9.33l-4.262,9.33H551.17z"></path>
    <path fill="#21B4C7" d="M562.918,330.675h-5.62v-1.083h12.439v1.083h-5.621v15.043h-1.198L562.918,330.675L562.918,330.675z"></path>
    <path fill="#21B4C7" d="M573.538,329.592h1.198v16.126h-1.198V329.592z"></path>
    <path fill="#21B4C7" d="M587.061,345.994c-1.229,0-2.339-0.227-3.329-0.68c-0.99-0.452-1.839-1.06-2.546-1.819
      c-0.706-0.761-1.252-1.64-1.635-2.638c-0.385-0.998-0.576-2.051-0.576-3.156v-0.046c0-1.106,0.195-2.162,0.587-3.168
      s0.94-1.893,1.647-2.66c0.706-0.769,1.559-1.379,2.557-1.832c0.998-0.452,2.111-0.68,3.341-0.68c1.213,0,2.318,0.228,3.317,0.68
      c0.998,0.453,1.851,1.06,2.557,1.82s1.252,1.64,1.636,2.638s0.576,2.05,0.576,3.156v0.046c0,1.105-0.196,2.161-0.588,3.167
      s-0.94,1.894-1.646,2.661c-0.707,0.768-1.563,1.379-2.569,1.831C589.383,345.768,588.273,345.994,587.061,345.994z
       M587.106,344.911c0.998,0,1.915-0.188,2.753-0.564c0.837-0.376,1.559-0.89,2.165-1.543c0.606-0.652,1.079-1.417,1.417-2.292
      c0.338-0.876,0.507-1.812,0.507-2.811v-0.046c0-0.998-0.173-1.938-0.519-2.822c-0.346-0.883-0.821-1.65-1.428-2.304
      c-0.607-0.652-1.333-1.171-2.178-1.555s-1.766-0.576-2.764-0.576c-0.999,0-1.916,0.188-2.753,0.564
      c-0.838,0.377-1.56,0.891-2.166,1.543c-0.606,0.653-1.079,1.417-1.416,2.293c-0.339,0.875-0.507,1.812-0.507,2.811v0.046
      c0,0.998,0.173,1.938,0.518,2.821c0.346,0.884,0.821,1.651,1.429,2.304c0.606,0.653,1.332,1.172,2.177,1.556
      S586.107,344.911,587.106,344.911z"></path>
    <path fill="#21B4C7" d="M599.27,329.592h1.128l11.127,14.029v-14.029h1.152v16.126h-0.898l-11.357-14.329v14.329h-1.151
      L599.27,329.592L599.27,329.592z"></path>
  </g>
</g>
</svg>